<svg xmlns="http://www.w3.org/2000/svg" viewBox="0 0 134.86 21.39"> <defs><style>.logo-horizontal-path-1,
		.logo-horizontal-path-2{
			fill-rule: evenodd;
		}

		.logo-horizontal-path-1 {
			fill: #fff;
		}

		.logo-horizontal-path-2 {
			fill: #5d7763;
		}</style></defs> <g><path class="logo-horizontal-path-1" d="M76.28,15.37,71.51,3H68.27l6.31,15.8h3.48L84.28,3H81.1L76.34,15.4Z"></path><path class="logo-horizontal-path-1" d="M132.84,11.25l-5.21-3A1.43,1.43,0,0,1,126.85,7a1.42,1.42,0,0,1,1.48-1.35h5.49V3h-5.36a4.34,4.34,0,0,0-4.52,4.16A4,4,0,0,0,126,10.52l5.29,3a1.37,1.37,0,0,1,.7,1.15,1.49,1.49,0,0,1-1.55,1.39h-5.11l-1.74,2.67h6.76a4.34,4.34,0,0,0,4.51-4.16,4,4,0,0,0-2.08-3.39"></path><path class="logo-horizontal-path-1" d="M112.27,16.09V3h-2.91V18.8h8.7l1.74-2.66v-.05Z"></path><path class="logo-horizontal-path-1" d="M37.92,16.09V3H35V18.8h8.7l1.74-2.66v-.05Z"></path><polygon class="logo-horizontal-path-1" points="52.28 2.9 52.28 18.9 52.28 18.9 62.16 18.9 62.16 18.9 62.16 16.16 54.94 16.16 54.94 12.27 61.17 12.27 61.17 9.53 54.94 9.53 54.94 5.63 62.16 5.63 62.16 2.9 52.28 2.9"></polygon><polygon class="logo-horizontal-path-1" points="90.56 2.9 90.56 18.9 90.56 18.9 100.43 18.9 100.43 18.9 100.43 16.16 93.21 16.16 93.21 12.27 99.45 12.27 99.45 9.53 93.21 9.53 93.21 5.63 100.43 5.63 100.43 2.9 90.56 2.9"></polygon><path class="logo-horizontal-path-2" d="M7.3,0,0,2.27V21.39H0l7.3-2.27V0h0"></path><path class="logo-horizontal-path-2" d="M9.54,12.55v8.84h0l7.3-2.27V10.31h0Z"></path></g> </svg>